<svg width="34" height="34" viewBox="0 0 34 34" fill="none" xmlns="http://www.w3.org/2000/svg">
<g clip-path="url(#clip0_858_176)">
<path d="M25.3 12C26.3729 11.2883 27.1885 10.2503 27.6261 9.03949C28.0638 7.82863 28.1003 6.50911 27.7304 5.27589C27.3604 4.04267 26.6035 2.96116 25.5716 2.19118C24.5397 1.42119 23.2875 1.00356 22 1H12C10.7125 1.00356 9.46025 1.42119 8.42835 2.19118C7.39644 2.96116 6.63959 4.04267 6.26962 5.27589C5.89966 6.50911 5.9362 7.82863 6.37385 9.03949C6.8115 10.2503 7.62705 11.2883 8.69999 12C7.87489 12.5473 7.19806 13.2903 6.72985 14.1627C6.26164 15.0351 6.01662 16.0099 6.01662 17C6.01662 17.9901 6.26164 18.9649 6.72985 19.8373C7.19806 20.7097 7.87489 21.4527 8.69999 22C7.83247 22.5713 7.12813 23.3581 6.6559 24.2832C6.18366 25.2084 5.95971 26.2404 6.00595 27.2781C6.05219 28.3158 6.36705 29.3237 6.91971 30.2033C7.47237 31.0828 8.24389 31.8038 9.15879 32.2956C10.0737 32.7875 11.1006 33.0334 12.1391 33.0094C13.1775 32.9853 14.192 32.692 15.0831 32.1583C15.9742 31.6245 16.7115 30.8686 17.2228 29.9644C17.7341 29.0602 18.0019 28.0387 18 27V21.5C19.1222 22.4434 20.5342 22.9729 22 23C23.2875 22.9964 24.5397 22.5788 25.5716 21.8088C26.6035 21.0388 27.3604 19.9573 27.7304 18.7241C28.1003 17.4909 28.0638 16.1714 27.6261 14.9605C27.1885 13.7497 26.3729 12.7117 25.3 12ZM18 3H22C23.0609 3 24.0783 3.42143 24.8284 4.17157C25.5786 4.92172 26 5.93913 26 7C26 8.06087 25.5786 9.07828 24.8284 9.82843C24.0783 10.5786 23.0609 11 22 11H18V3ZM7.99999 7C7.99999 5.93913 8.42142 4.92172 9.17156 4.17157C9.92171 3.42143 10.9391 3 12 3H16V11H12C10.9391 11 9.92171 10.5786 9.17156 9.82843C8.42142 9.07828 7.99999 8.06087 7.99999 7ZM7.99999 17C7.99999 15.9391 8.42142 14.9217 9.17156 14.1716C9.92171 13.4214 10.9391 13 12 13H16V21H12C10.9391 21 9.92171 20.5786 9.17156 19.8284C8.42142 19.0783 7.99999 18.0609 7.99999 17ZM16 27C16 27.7911 15.7654 28.5645 15.3259 29.2223C14.8863 29.8801 14.2616 30.3928 13.5307 30.6955C12.7998 30.9983 11.9956 31.0775 11.2196 30.9231C10.4437 30.7688 9.73097 30.3878 9.17156 29.8284C8.61215 29.269 8.23119 28.5563 8.07685 27.7804C7.92251 27.0044 8.00172 26.2002 8.30447 25.4693C8.60722 24.7384 9.11991 24.1136 9.77771 23.6741C10.4355 23.2346 11.2089 23 12 23H16V27ZM22 21C21.2089 21 20.4355 20.7654 19.7777 20.3259C19.1199 19.8864 18.6072 19.2616 18.3045 18.5307C18.0017 17.7998 17.9225 16.9956 18.0768 16.2196C18.2312 15.4437 18.6122 14.731 19.1716 14.1716C19.731 13.6122 20.4437 13.2312 21.2196 13.0769C21.9956 12.9225 22.7998 13.0017 23.5307 13.3045C24.2616 13.6072 24.8863 14.1199 25.3259 14.7777C25.7654 15.4355 26 16.2089 26 17C26 18.0609 25.5786 19.0783 24.8284 19.8284C24.0783 20.5786 23.0609 21 22 21Z" fill="black" stroke="white"/>
</g>
<defs>
<clipPath id="clip0_858_176">
<rect width="34" height="34" fill="white"/>
</clipPath>
</defs>
</svg>
