<svg xmlns="http://www.w3.org/2000/svg" xmlns:xlink="http://www.w3.org/1999/xlink" version="1.1" x="0px" y="0px" viewBox="0 0 468 585" style="enable-background:new 0 0 468 468;" xml:space="preserve"><g><path d="M384.592,190.201v-82.369c0-2.115-0.838-4.144-2.329-5.644L282.914,2.356C281.412,0.849,279.372,0,277.243,0H59.917   C44.523,0,32,12.561,32,28v412c0,15.439,12.523,28,27.917,28h296.759c15.393,0,27.916-12.561,27.916-28v-72.201h-16V440   c0,6.617-5.346,12-11.916,12H59.917C53.346,452,48,446.617,48,440V28c0-6.617,5.346-12,11.917-12h208.949v92.143   c0,4.418,3.582,8,8,8h91.726v74.059H384.592z M284.866,100.143V27.371l72.47,72.771H284.866z"/><g><g><path d="M428,335.798H270.896c-4.418,0-8-3.582-8-8v-97.596c0-4.418,3.582-8,8-8H428c4.418,0,8,3.582,8,8v97.596     C436,332.216,432.418,335.798,428,335.798z M278.896,319.798H420v-81.596H278.896V319.798z"/></g><g><g><path d="M330.668,247.149l-21.601,63.701h12.185l6.191-18.78H345.7l6.371,18.78h12.443l-21.701-63.701H330.668z       M342.751,282.049h-12.375l4.958-14.671c0.4-1.266,0.793-2.58,1.191-3.977c0.386,1.33,0.809,2.696,1.293,4.111L342.751,282.049z      "/></g><g><rect x="377.349" y="247.149" width="11.689" height="63.701"/></g></g></g></g><text x="0" y="483" fill="#000000" font-size="5px" font-weight="bold" font-family="'Helvetica Neue', Helvetica, Arial-Unicode, Arial, Sans-serif">Created by SBTS</text><text x="0" y="488" fill="#000000" font-size="5px" font-weight="bold" font-family="'Helvetica Neue', Helvetica, Arial-Unicode, Arial, Sans-serif">from the Noun Project</text></svg>