<svg xmlns="http://www.w3.org/2000/svg" viewBox="0 0 34 42.5" x="0px" y="0px"><path d="M25.3,12A6,6,0,0,0,22,1H12A6,6,0,0,0,8.7,12a6,6,0,0,0,0,10A6,6,0,1,0,18,27V21.5A6.4,6.4,0,0,0,22,23a6,6,0,0,0,3.3-11ZM18,3h4a4,4,0,0,1,0,8H18ZM8,7a4,4,0,0,1,4-4h4v8H12A4,4,0,0,1,8,7ZM8,17a4,4,0,0,1,4-4h4v8H12A4,4,0,0,1,8,17Zm8,10a4,4,0,1,1-4-4h4Zm6-6a4,4,0,1,1,4-4A4,4,0,0,1,22,21Z"/><text x="0" y="49" fill="#000000" font-size="5px" font-weight="bold" font-family="'Helvetica Neue', Helvetica, Arial-Unicode, Arial, Sans-serif">Created by Andreas Wikström</text><text x="0" y="54" fill="#000000" font-size="5px" font-weight="bold" font-family="'Helvetica Neue', Helvetica, Arial-Unicode, Arial, Sans-serif">from the Noun Project</text></svg>