<svg xmlns="http://www.w3.org/2000/svg" xmlns:xlink="http://www.w3.org/1999/xlink" version="1.1" x="0px" y="0px" viewBox="0 0 100 125" enable-background="new 0 0 100 100" xml:space="preserve"><g><g><polygon fill="none" stroke="#000000" stroke-width="4" stroke-linejoin="round" stroke-miterlimit="10" points="18.96,11.204     18.96,88.796 81.04,88.796 81.04,24.543 67.701,11.204   "/><polygon fill="none" stroke="#000000" stroke-width="4" stroke-linejoin="round" stroke-miterlimit="10" points="67.701,11.204     81.04,24.543 67.701,24.543   "/></g></g><g><g><path d="M30.811,60.449h2.583l8.549-23.861h4.293l8.549,23.861h2.583v2.963h-9.309v-2.963h2.85l-2.09-5.965h-9.499l-2.09,5.965    h2.888v2.963h-9.309V60.449z M47.871,51.444l-3.268-9.309c-0.38-1.102-0.456-2.052-0.456-2.052h-0.114c0,0-0.114,0.95-0.456,2.052    l-3.306,9.309H47.871z"/><path d="M59.462,60.562h3.001V47.037h-3.191v-2.85h6.877v16.375h3.04v2.85h-9.727V60.562z M62.388,36.588h3.875v3.762h-3.875    V36.588z"/></g></g><text x="0" y="115" fill="#000000" font-size="5px" font-weight="bold" font-family="'Helvetica Neue', Helvetica, Arial-Unicode, Arial, Sans-serif">Created by Linseed Studio</text><text x="0" y="120" fill="#000000" font-size="5px" font-weight="bold" font-family="'Helvetica Neue', Helvetica, Arial-Unicode, Arial, Sans-serif">from the Noun Project</text></svg>