<svg xmlns="http://www.w3.org/2000/svg" xmlns:xlink="http://www.w3.org/1999/xlink" viewBox="0 0 60 75" version="1.1" x="0px" y="0px"><title>7 -JS File- (Outline)</title><desc>Created with Sketch.</desc><g stroke="none" stroke-width="1" fill="none" fill-rule="evenodd"><g transform="translate(-840.000000, -330.000000)" fill="#000000"><g transform="translate(840.000000, 330.000000)"><path d="M49,44 C46.243,44 44,41.757 44,39 C44,38.448 44.447,38 45,38 C45.553,38 46,38.448 46,39 C46,40.654 47.346,42 49,42 C50.654,42 52,40.654 52,39 C52,37.346 50.654,36 49,36 C46.243,36 44,33.757 44,31 C44,28.243 46.243,26 49,26 C51.757,26 54,28.243 54,31 C54,31.552 53.553,32 53,32 C52.447,32 52,31.552 52,31 C52,29.346 50.654,28 49,28 C47.346,28 46,29.346 46,31 C46,32.654 47.346,34 49,34 C51.757,34 54,36.243 54,39 C54,41.757 51.757,44 49,44"/><path d="M36,12 L44.586,12 L36,3.414 L36,12 Z M47,14 L35,14 C34.447,14 34,13.552 34,13 L34,1 C34,0.596 34.243,0.231 34.617,0.076 C34.992,-0.078 35.422,0.007 35.707,0.293 L47.707,12.293 C47.993,12.579 48.079,13.009 47.924,13.383 C47.77,13.756 47.404,14 47,14 L47,14 Z"/><path d="M28,46 L58,46 L58,24 L28,24 L28,46 Z M59,48 L27,48 C26.447,48 26,47.552 26,47 L26,23 C26,22.448 26.447,22 27,22 L59,22 C59.553,22 60,22.448 60,23 L60,47 C60,47.552 59.553,48 59,48 L59,48 Z"/><path d="M47,60 L1,60 C0.447,60 0,59.552 0,59 L0,1 C0,0.448 0.447,0 1,0 L35,0 C35.553,0 36,0.448 36,1 C36,1.552 35.553,2 35,2 L2,2 L2,58 L46,58 L46,47 C46,46.448 46.447,46 47,46 C47.553,46 48,46.448 48,47 L48,59 C48,59.552 47.553,60 47,60"/><path d="M47,24 C46.447,24 46,23.552 46,23 L46,13 C46,12.448 46.447,12 47,12 C47.553,12 48,12.448 48,13 L48,23 C48,23.552 47.553,24 47,24"/><path d="M36,43 C33.794,43 32,41.206 32,39 C32,38.448 32.447,38 33,38 C33.553,38 34,38.448 34,39 C34,40.103 34.897,41 36,41 C37.103,41 38,40.103 38,39 L38,27 C38,26.448 38.447,26 39,26 C39.553,26 40,26.448 40,27 L40,39 C40,41.206 38.206,43 36,43"/></g></g></g><text x="0" y="75" fill="#000000" font-size="5px" font-weight="bold" font-family="'Helvetica Neue', Helvetica, Arial-Unicode, Arial, Sans-serif">Created by Smashicons</text><text x="0" y="80" fill="#000000" font-size="5px" font-weight="bold" font-family="'Helvetica Neue', Helvetica, Arial-Unicode, Arial, Sans-serif">from the Noun Project</text></svg>