<svg xmlns="http://www.w3.org/2000/svg" xmlns:xlink="http://www.w3.org/1999/xlink" version="1.1" x="0px" y="0px" viewBox="0 0 512 640" style="enable-background:new 0 0 512 512;" xml:space="preserve"><g><g><g><g><path d="M336,266c-2.6,0-5.1-1-7.1-2.9c-1.4-1.4-2.8-2.8-4.2-4.2c-18.1-18-38.7-38.4-38.7-62.9c0-27.6,22.4-50,50-50      s50,22.4,50,50c0,5.5-4.5,10-10,10s-10-4.5-10-10c0-16.5-13.5-30-30-30s-30,13.5-30,30c0,16.2,17.4,33.4,32.8,48.7      c1.4,1.4,2.9,2.9,4.3,4.3c3.9,3.9,3.9,10.2,0,14.1C341.1,265,338.6,266,336,266z"/></g><g><path d="M336,366c-27.6,0-50-22.4-50-50c0-5.5,4.5-10,10-10s10,4.5,10,10c0,16.5,13.5,30,30,30s30-13.5,30-30      c0-18.3-19.6-36.6-36.8-52.7c-4-3.8-4.3-10.1-0.5-14.1s10.1-4.2,14.1-0.5C363.1,267.6,386,289,386,316      C386,343.6,363.6,366,336,366z"/></g><g><path d="M216,166h-40c-5.5,0-10-4.5-10-10s4.5-10,10-10h40c5.5,0,10,4.5,10,10S221.5,166,216,166z"/></g><g><path d="M166,366c-22.1,0-40-17.9-40-40v-10c0-5.5,4.5-10,10-10s10,4.5,10,10v10c0,11,9,20,20,20s20-9,20-20V156      c0-5.5,4.5-10,10-10s10,4.5,10,10v170C206,348.1,188.1,366,166,366z"/></g><g><path d="M496,506H16c-5.5,0-10-4.5-10-10V16c0-5.5,4.5-10,10-10h480c5.5,0,10,4.5,10,10v480C506,501.5,501.5,506,496,506z       M26,486h460V26H26V486z"/></g></g></g></g><text x="0" y="527" fill="#000000" font-size="5px" font-weight="bold" font-family="'Helvetica Neue', Helvetica, Arial-Unicode, Arial, Sans-serif">Created by ibrandify</text><text x="0" y="532" fill="#000000" font-size="5px" font-weight="bold" font-family="'Helvetica Neue', Helvetica, Arial-Unicode, Arial, Sans-serif">from the Noun Project</text></svg>