<svg width="34" height="34" viewBox="0 0 34 34" fill="none" xmlns="http://www.w3.org/2000/svg">
<path d="M4.85994 32.6396V32.7396H4.95994H29.0402H29.1402V32.6396V27.3509C29.1402 27.0362 29.4129 26.7709 29.7612 26.7709C30.1095 26.7709 30.3821 27.0362 30.3821 27.3509V33.3195C30.3818 33.6344 30.1094 33.8996 29.7608 33.8996H4.239C3.89069 33.8996 3.61807 33.6343 3.61807 33.3196V27.3509C3.61807 27.0362 3.89069 26.7709 4.239 26.7709C4.58732 26.7709 4.85994 27.0362 4.85994 27.3509V32.6396Z" fill="black" stroke="white" stroke-width="0.2"/>
<path d="M29.1399 8.81113V8.71113H29.0399H21.8612C21.5129 8.71113 21.2402 8.44584 21.2402 8.13113V1.36V1.26H21.1402H4.95994H4.85994V1.36V18.0517C4.85994 18.3664 4.58732 18.6317 4.239 18.6317C3.89069 18.6317 3.61807 18.3664 3.61807 18.0517V0.680002C3.61807 0.365296 3.89069 0.1 4.239 0.1H21.8615C22.2098 0.1 22.4825 0.365296 22.4825 0.680002V7.45113V7.55113H22.5825H29.7612C30.1095 7.55113 30.3821 7.81642 30.3821 8.13113V18.0516C30.3818 18.3664 30.1094 18.6317 29.7608 18.6317C29.4125 18.6317 29.1399 18.3664 29.1399 18.0517V8.81113Z" fill="black" stroke="white" stroke-width="0.2"/>
<path d="M22.3023 0.271901L22.3023 0.271903L30.202 7.72269C30.4416 7.94876 30.4416 8.31265 30.202 8.53872L30.2019 8.53881C30.0811 8.65297 29.9217 8.71105 29.7609 8.71105C29.6 8.71105 29.4409 8.65327 29.3198 8.53906L21.4201 1.08793C21.1805 0.861863 21.1805 0.497972 21.4201 0.271901C21.6631 0.0426995 22.0593 0.0426995 22.3023 0.271901Z" fill="black" stroke="white" stroke-width="0.2"/>
<path d="M28.066 28.1984H5.93401C2.71169 28.1984 0.1 25.7268 0.1 22.7016C0.1 19.6761 2.71169 17.2045 5.93401 17.2045H28.066C31.2883 17.2045 33.9 19.6761 33.9 22.7016C33.9 25.7271 31.2883 28.1984 28.066 28.1984ZM5.93401 18.3648C3.40723 18.3648 1.34187 20.3051 1.34187 22.7019C1.34187 25.0988 3.40726 27.0383 5.93401 27.0383H28.066C30.5924 27.0383 32.6581 25.0984 32.6581 22.7016C32.6581 20.3048 30.5924 18.3648 28.066 18.3648H5.93401Z" fill="black" stroke="white" stroke-width="0.2"/>
<path d="M13.6485 20.8654V20.7654H13.5485H12.1366C11.9872 20.7654 11.8761 20.6527 11.8761 20.5254V19.9103C11.8761 19.783 11.9872 19.6703 12.1366 19.6703H16.455C16.6047 19.6703 16.7156 19.783 16.7158 19.9102V20.525C16.7158 20.6524 16.605 20.765 16.4553 20.765H15.0398H14.9398V20.865V25.4901C14.9398 25.6174 14.8287 25.7301 14.6793 25.7301H13.909C13.7596 25.7301 13.6485 25.6174 13.6485 25.4901V20.8654Z" fill="black" stroke="white" stroke-width="0.2"/>
<path d="M20.649 24.4734C20.7085 24.3877 20.7373 24.2979 20.7373 24.199C20.7373 24.0786 20.6952 23.9678 20.6079 23.8583C20.5355 23.7679 20.3643 23.6132 19.9559 23.3888L21.322 20.8554C20.9309 20.7126 20.5474 20.6409 20.1829 20.6409C19.9414 20.6409 19.7583 20.6943 19.6224 20.8037C19.4999 20.9027 19.4454 21.005 19.4454 21.1352C19.4454 21.2743 19.4872 21.3797 19.5763 21.4667C19.706 21.5936 19.8783 21.7139 20.0874 21.8234L21.0737 22.3807C21.8389 22.8223 22.2239 23.3942 22.225 24.0844C22.225 24.6084 22.0206 25.0636 21.6176 25.4376C21.216 25.8099 20.5924 25.9993 19.7637 25.9993C19.5092 25.9993 19.262 25.9786 19.0291 25.9374C18.7959 25.897 18.5039 25.8157 18.1362 25.6916C17.9931 25.6426 17.8976 25.5151 17.8976 25.3717V24.6883C17.8976 24.5713 17.961 24.4632 18.0656 24.4006C18.1701 24.3381 18.3013 24.3309 18.413 24.3806C18.9714 24.6308 19.4786 24.7576 19.9202 24.7576C20.0813 24.7576 20.2316 24.7297 20.379 24.6713M20.649 24.4734C20.5914 24.557 20.5027 24.6223 20.379 24.6713M20.649 24.4734L20.7312 24.5304C20.7312 24.5304 20.7312 24.5303 20.7313 24.5303M20.649 24.4734L20.7314 24.5301C20.7313 24.5302 20.7313 24.5302 20.7313 24.5303M20.379 24.6713L20.4159 24.7642C20.4159 24.7642 20.4159 24.7642 20.4159 24.7642M20.379 24.6713L20.4159 24.7642M21.3562 20.7614C20.9556 20.6152 20.5605 20.5409 20.1829 20.5409C19.9272 20.5409 19.719 20.5975 19.5597 20.7259L19.5596 20.7259C19.4188 20.8396 19.3454 20.9686 19.3454 21.1352C19.3454 21.298 19.3959 21.4302 19.5064 21.5383L19.5064 21.5383C19.6445 21.6732 19.8249 21.7987 20.0396 21.9112L21.0241 22.4675C21.768 22.8969 22.124 23.4402 22.125 24.0846C22.125 24.5791 21.9333 25.0082 21.5496 25.3643C21.174 25.7125 20.5797 25.8993 19.7637 25.8993C19.5146 25.8993 19.2732 25.879 19.0465 25.8389L19.0462 25.8389C18.8204 25.7997 18.5341 25.7203 18.1684 25.5969C18.0626 25.5606 17.9976 25.469 17.9976 25.3717V24.6883C17.9976 24.6085 18.0408 24.532 18.1169 24.4864C18.193 24.4409 18.2898 24.4353 18.3723 24.4719L21.3562 20.7614ZM21.3562 20.7614C21.4389 20.7913 21.53 20.7807 21.6014 20.7345L21.6016 20.7343C21.6726 20.6885 21.7126 20.6147 21.7126 20.5382V19.917C21.7126 19.8154 21.6424 19.7207 21.531 19.6884L21.5308 19.6883C21.1137 19.5663 20.6758 19.5043 20.2291 19.5043C19.4923 19.5043 18.9491 19.6784 18.5975 20.0049L18.5975 20.005C18.2388 20.3375 18.0585 20.7486 18.0585 21.2325C18.0585 21.8837 18.4354 22.4371 19.2251 22.8782L20.0036 23.3009L20.004 23.3011C20.4172 23.5282 20.6016 23.6904 20.686 23.7958L20.6861 23.796C20.785 23.9201 20.8373 24.0524 20.8373 24.199C20.8373 24.3194 20.8017 24.4288 20.7313 24.5303M21.3562 20.7614L20.4159 24.7642M20.7313 24.5303C20.6595 24.6343 20.5525 24.7101 20.4159 24.7642" fill="black" stroke="white" stroke-width="0.2"/>
</svg>
