<svg width="100" height="100" viewBox="0 0 100 100" fill="none" xmlns="http://www.w3.org/2000/svg">
<path d="M84.9586 24.9557L84.9571 24.9571L59.9142 50L84.9571 75.0429L84.9586 75.0444C86.3147 76.4061 87.0025 78.0767 87 80M84.9586 24.9557L84.25 15.75C83.076 14.5809 81.6594 13.9975 80 14L80.0015 13C80.001 13 80.0005 13 80 13C78.0767 12.9975 76.4061 13.6853 75.0444 15.0414L75.0429 15.0429L50 40.0858L24.9571 15.0429L24.9557 15.0414C23.5939 13.6853 21.9233 12.9975 20 13C18.0767 12.9975 16.4061 13.6853 15.0444 15.0414L15.0444 15.0414L15.0414 15.0444C13.6853 16.4061 12.9975 18.0767 13 20C12.9975 21.9233 13.6853 23.5939 15.0414 24.9557L15.0429 24.9571L40.0858 50L15.0429 75.0429L15.0414 75.0444C13.6853 76.4061 12.9975 78.0767 13 80C12.9975 81.9233 13.6853 83.5939 15.0414 84.9557L15.0444 84.9586C16.4061 86.3147 18.0767 87.0025 20 87M84.9586 24.9557C86.3147 23.5939 87.0025 21.9233 87 20M84.9586 24.9557L87 20M87 80C87.0025 81.9233 86.3147 83.5939 84.9586 84.9557L84.9557 84.9586C83.5939 86.3147 81.9233 87.0025 80 87M87 80C87 80.0005 87 80.001 87 80.0015L86 80M87 80C87 79.9995 87 79.999 87 79.9985L86 80M80 87C78.0767 87.0025 76.4061 86.3147 75.0444 84.9586L75.0429 84.9571L50 59.9142L24.9571 84.9571L24.9557 84.9586C23.5939 86.3147 21.9233 87.0025 20 87M80 87C79.9995 87 79.999 87 79.9985 87L80 86M80 87C80.0005 87 80.001 87 80.0015 87L80 86M20 87C19.9995 87 19.999 87 19.9985 87L20 86L20.0015 87C20.001 87 20.0005 87 20 87ZM87 20C87 20.0005 87 20.001 87 20.0015L86 20L87 19.9985C87 19.999 87 19.9995 87 20ZM80 86C78.3406 86.0025 76.924 85.4192 75.75 84.25L80 86ZM86 80C86.0025 81.6594 85.4192 83.076 84.25 84.25L86 80Z" fill="black" stroke="#FFFBF6" stroke-width="2"/>
</svg>
