<svg width="100" height="100" viewBox="0 0 100 100" fill="none" xmlns="http://www.w3.org/2000/svg">
<path d="M84.25 24.25C85.4191 23.076 86.0025 21.6594 86 20C86.0025 18.3406 85.4191 16.924 84.25 15.75C83.076 14.5809 81.6594 13.9975 80 14C78.3406 13.9975 76.924 14.5809 75.75 15.75L50 41.5L24.25 15.75C23.076 14.5809 21.6594 13.9975 20 14C18.3406 13.9975 16.924 14.5809 15.75 15.75C14.5809 16.924 13.9975 18.3406 14 20C13.9975 21.6594 14.5809 23.076 15.75 24.25L41.5 50L15.75 75.75C14.5809 76.924 13.9975 78.3406 14 80C13.9975 81.6594 14.5809 83.076 15.75 84.25C16.924 85.4191 18.3406 86.0025 20 86C21.6594 86.0025 23.076 85.4191 24.25 84.25L50 58.5L75.75 84.25C76.924 85.4191 78.3406 86.0025 80 86C81.6594 86.0025 83.076 85.4191 84.25 84.25C85.4191 83.076 86.0025 81.6594 86 80C86.0025 78.3406 85.4191 76.924 84.25 75.75L58.5 50L84.25 24.25Z" fill="black"/>
</svg>
